<svg xmlns="http://www.w3.org/2000/svg" viewBox="152 105 393 130">
    <path opacity=".13" fill="#010202" d="M342.5 160h6v-40l-12.2-10.2-1.5 39.5.3.7H149.4l6.9 10h186.2"/>
    <path fill="#2EAA50" d="M156.5 101h186v38h-186v-38z"/>
    <path fill="#237636" d="M149.4 150h185.9l7.2-11h-186l-7.1 11z"/>
    <path fill="#50B053" d="M149.4 150l7.1-11v-38l-7 10-.1 39z"/>
    <path opacity=".13" fill="#010202" d="M541.5 152h-1v-32.5l-5.2-10.1-1.6 39.1.3.5H348.7l6.9 3H541l.5.1v-.1z"/>
    <path fill="#2EAA50" d="M350.5 108h185v39h-185v-39z"/>
    <path fill="#237636" d="M348.7 149h185.5l1.9-2H350.5l-1.8 2z"/>
    <path fill="#50B053" d="M348.5 149l2-2.2v-38.7l-2 2.4V149z"/>
    <path opacity=".13" fill="#010202" d="M341.5 230h-.4 6.4v-39.5l-12.2-10.2-1.5 39.2.2.5H148.7l6.9 10H341l.5.1v-.1z"/>
    <path fill="#FFD139" d="M155.5 171h185v39h-185v-39z"/>
    <path fill="#E2B537" d="M148.7 220h185.5l6.9-10H155.5l-6.8 10z"/>
    <path fill="#F9DD8F" d="M148.5 220l7-10.2v-38.7l-7 10.4V220z"/>
    <g>
        <path opacity=".13" fill="#010202" d="M541.5 223h-1v-32.5l-5.2-10.2-1.6 39.2.3.5H348.7l6.9 3H541l.5.1v-.1z"/>
        <path fill="#FFD139" d="M350.5 179h185v39h-185v-39z"/>
        <path fill="#E2B537" d="M348.7 220h185.5l1.9-2H350.5l-1.8 2z"/>
        <path fill="#F9DD8F" d="M348.5 220l2-2.2v-38.7l-2 2.4V220z"/>
    </g>
</svg>
